<svg xmlns="http://www.w3.org/2000/svg" xmlns:xlink="http://www.w3.org/1999/xlink" viewBox="0 0 300 100">
  <defs>
    <style>
      .cls-1 {
        clip-path: url(#clip-email_banner);
      }

      .cls-2 {
        fill: #7ba344;
      }

      .cls-3 {
        fill: #fff;
      }
    </style>
    <clipPath id="clip-email_banner">
      <rect width="300" height="100"/>
    </clipPath>
  </defs>
  <g id="email_banner" class="cls-1">
    <rect id="Rectangle_309" data-name="Rectangle 309" class="cls-2" width="300" height="100"/>
    <g id="Group_494" data-name="Group 494" transform="translate(20 29)">
      <g id="Group_458" data-name="Group 458" transform="translate(159.708)">
        <path id="Path_745" data-name="Path 745" class="cls-3" d="M349.661,33.8l.174-.562,2.8.87-.174.562Z" transform="translate(-348.905 -17.983)"/>
        <path id="Path_746" data-name="Path 746" class="cls-3" d="M352.08,25.367l.34-.638,2.462.045,0-.007-1.936-1.032.265-.5,2.589,1.38-.338.634L353,25.21l0,.007,1.936,1.032-.265.5Z" transform="translate(-350.214 -12.574)"/>
        <path id="Path_747" data-name="Path 747" class="cls-3" d="M358.4,16.525l-.542.642-.353-.3,1.463-1.735.353.3-.542.642,1.889,1.593-.379.45Z" transform="translate(-353.148 -8.189)"/>
        <path id="Path_748" data-name="Path 748" class="cls-3" d="M364.486,10.242l1.351-1.083.289.361-.892.715.452.564.816-.654.289.361-.816.654.515.642.9-.72.289.361-1.357,1.089Z" transform="translate(-356.927 -4.956)"/>
        <path id="Path_749" data-name="Path 749" class="cls-3" d="M372.922,5.456l.172-.088c.262-.133.568-.256.728.059s-.111.514-.37.645l-.172.088Zm.6,2.469.525-.267-.552-1.087.168-.086a.366.366,0,0,1,.5.085l.73.657.585-.3-.939-.81a.435.435,0,0,0-.414-.129l0-.007a.671.671,0,0,0,.231-.881c-.369-.727-1.031-.367-1.592-.082l-.566.288Z" transform="translate(-361.094 -2.531)"/>
        <path id="Path_750" data-name="Path 750" class="cls-3" d="M381.565,1.307l.7-.173L383.877,3l.008,0-.524-2.13.547-.134.7,2.848-.7.172L382.3,1.889l-.008,0,.524,2.13-.547.134Z" transform="translate(-366.168 -0.396)"/>
        <path id="Path_751" data-name="Path 751" class="cls-3" d="M393.911,1.8l-.857,0,.421-1.212h.009Zm-1.888,1.141.609,0,.254-.673,1.19,0,.254.672.651,0L393.821,0l-.664,0Z" transform="translate(-371.827)"/>
        <path id="Path_752" data-name="Path 752" class="cls-3" d="M402.927,1.026,402.1.867l.087-.454,2.228.429-.087.454-.826-.159-.467,2.427-.578-.111Z" transform="translate(-377.28 -0.223)"/>
        <path id="Path_753" data-name="Path 753" class="cls-3" d="M410.725,2.88l.55.21-1.048,2.74-.55-.21Z" transform="translate(-381.379 -1.558)"/>
        <path id="Path_754" data-name="Path 754" class="cls-3" d="M416.684,7.733c.28-.435.768-.75,1.259-.434a.9.9,0,0,1,.126,1.326c-.286.445-.763.774-1.268.448S416.4,8.178,416.684,7.733Zm-.516-.332a1.44,1.44,0,1,0,2.417,1.555,1.372,1.372,0,0,0-.392-2.047A1.36,1.36,0,0,0,416.168,7.4Z" transform="translate(-384.727 -3.595)"/>
        <path id="Path_755" data-name="Path 755" class="cls-3" d="M425.362,12.8l.489.533-.86,2.307.005.006,1.616-1.483.381.415-2.161,1.983-.486-.53.858-2.31-.005-.006L423.582,15.2l-.381-.415Z" transform="translate(-388.697 -6.928)"/>
        <path id="Path_756" data-name="Path 756" class="cls-3" d="M430.949,24.751,430.54,24l1.266-.2,0,.007Zm-1.9-1.12.291.536.713-.1.568,1.045-.47.542.311.572,2.028-2.412-.317-.583Z" transform="translate(-391.861 -12.572)"/>
        <path id="Path_757" data-name="Path 757" class="cls-3" d="M436.289,31.713l.166.564-2.371.7.32,1.093-.444.13-.486-1.658Z" transform="translate(-394.255 -17.159)"/>
        <path id="Path_758" data-name="Path 758" class="cls-3" d="M349.376,48.763l.027.276c.028.293,0,.608-.381.645-.339.033-.438-.291-.464-.563l-.027-.276Zm1.154-.112.022.226c.026.268.03.567-.309.6-.3.029-.385-.271-.409-.518l-.023-.239Zm-2.516-.347.1,1.021c.036.368.209,1.018.945.947a.681.681,0,0,0,.6-.734h.008a.655.655,0,0,0,.709.518c.64-.062.694-.637.657-1.014l-.1-1.021Z" transform="translate(-348.014 -25.983)"/>
        <path id="Path_759" data-name="Path 759" class="cls-3" d="M351.185,59.439l-.289-.807,1.283-.008,0,.008Zm-1.706-1.4.206.574.72.015.4,1.12-.548.464.219.613,2.374-2.073-.224-.625Z" transform="translate(-348.807 -31.405)"/>
        <path id="Path_760" data-name="Path 760" class="cls-3" d="M356.45,66.046l.1.163c.157.249.307.542.009.73s-.522-.063-.677-.308l-.1-.163Zm-2.4.823.314.5,1.03-.651.1.16a.365.365,0,0,1-.038.506l-.586.788.351.554.718-1.011a.435.435,0,0,0,.089-.424l.007,0a.671.671,0,0,0,.9.148c.689-.436.269-1.061-.067-1.593l-.339-.536Z" transform="translate(-351.278 -35.333)"/>
        <path id="Path_761" data-name="Path 761" class="cls-3" d="M366.328,79.683l-.673-.532,1.083-.687.006.005Zm-2.187-.282.478.378.618-.369.933.737-.219.684.511.4.916-3.016-.521-.412Z" transform="translate(-356.74 -42.101)"/>
        <path id="Path_762" data-name="Path 762" class="cls-3" d="M376.17,83.684a1.518,1.518,0,0,0-.479-.378.409.409,0,0,0-.6.16c-.225.456,1.022.834.586,1.715-.285.576-.849.57-1.38.307a2.6,2.6,0,0,1-.624-.435l.284-.45a1.421,1.421,0,0,0,.515.457c.2.1.518.129.635-.108.248-.5-1.007-.864-.577-1.734a.9.9,0,0,1,1.316-.347,2.222,2.222,0,0,1,.582.405Z" transform="translate(-361.9 -44.761)"/>
        <path id="Path_763" data-name="Path 763" class="cls-3" d="M384.575,86.524a1.511,1.511,0,0,0-.547-.271.408.408,0,0,0-.549.279c-.127.492,1.172.606.927,1.558-.16.623-.714.732-1.288.584a2.581,2.581,0,0,1-.7-.3l.185-.5a1.413,1.413,0,0,0,.6.341c.216.056.533.02.6-.236.139-.542-1.164-.638-.922-1.578a.9.9,0,0,1,1.216-.611,2.221,2.221,0,0,1,.654.277Z" transform="translate(-366.63 -46.395)"/>
        <path id="Path_764" data-name="Path 764" class="cls-3" d="M392.315,88.473c0-.517.245-1.045.829-1.042s.821.534.818,1.051-.229,1.062-.829,1.059S392.313,89,392.315,88.473Zm-.614,0a1.439,1.439,0,1,0,1.446-1.5A1.369,1.369,0,0,0,391.7,88.47Z" transform="translate(-371.653 -47.058)"/>
        <path id="Path_765" data-name="Path 765" class="cls-3" d="M405.073,88.265a2.985,2.985,0,0,1-.628.247,1.409,1.409,0,0,1-1.909-1.048,1.455,1.455,0,0,1,1.2-1.9,1.941,1.941,0,0,1,.674-.038l.076.492a1.214,1.214,0,0,0-.654,0,.98.98,0,0,0-.706,1.265.967.967,0,0,0,1.214.783,1.639,1.639,0,0,0,.6-.269Z" transform="translate(-377.483 -46.269)"/>
        <path id="Path_766" data-name="Path 766" class="cls-3" d="M410.366,83.643l.537-.241,1.2,2.676-.537.241Z" transform="translate(-381.752 -45.128)"/>
        <path id="Path_767" data-name="Path 767" class="cls-3" d="M418.712,80.849l-.7.493-.349-1.234.007-.005Zm-.894,2.016.5-.351-.177-.7.973-.684.593.4.533-.375-2.63-1.737-.543.382Z" transform="translate(-385.377 -42.976)"/>
        <path id="Path_768" data-name="Path 768" class="cls-3" d="M423.11,74.023l-.58.608-.335-.319,1.567-1.642.335.319-.58.608L425.3,75.3l-.406.425Z" transform="translate(-388.152 -39.321)"/>
        <path id="Path_769" data-name="Path 769" class="cls-3" d="M427.951,68.961l.331-.486,2.425,1.651-.331.486Z" transform="translate(-391.267 -37.051)"/>
        <path id="Path_770" data-name="Path 770" class="cls-3" d="M432.95,62.28c-.475-.2-.866-.635-.635-1.171s.812-.547,1.287-.342.888.626.65,1.178S433.437,62.489,432.95,62.28Zm-.243.563a1.439,1.439,0,1,0-.816-1.917A1.369,1.369,0,0,0,432.708,62.843Z" transform="translate(-393.32 -32.489)"/>
        <path id="Path_771" data-name="Path 771" class="cls-3" d="M434.5,52.366l.113-.714,2.342-.761v-.008l-2.167-.343.088-.556,2.9.458-.112.71-2.342.765v.008l2.167.343-.088.556Z" transform="translate(-394.813 -27.045)"/>
        <path id="Path_772" data-name="Path 772" class="cls-3" d="M369.741,20.027a.85.85,0,0,1,0,1.209.87.87,0,0,1-1.222,0,.85.85,0,0,1,0-1.21A.868.868,0,0,1,369.741,20.027Z" transform="translate(-358.973 -10.701)"/>
        <path id="Path_773" data-name="Path 773" class="cls-3" d="M420.132,69.954a.85.85,0,0,1,0,1.209.868.868,0,0,1-1.221,0,.85.85,0,0,1,0-1.21A.869.869,0,0,1,420.132,69.954Z" transform="translate(-386.238 -37.715)"/>
        <g id="Group_456" data-name="Group 456" transform="translate(7.218 7.118)">
          <path id="Path_774" data-name="Path 774" class="cls-3" d="M377.351,29.023a27.514,27.514,0,0,1,2.86-2.472c-3.51-2.435-6.5-3.481-7.7-2.468-.023.022-.047.043-.07.066s-.055.058-.083.087c-1.017,1.19.039,4.147,2.494,7.62A27.4,27.4,0,0,1,377.351,29.023Z" transform="translate(-368.199 -19.941)"/>
          <path id="Path_775" data-name="Path 775" class="cls-3" d="M380.209,57.619a27.8,27.8,0,0,1-5.355-5.306c-2.326,3.291-3.4,6.12-2.639,7.42.077.079.15.161.229.239s.186.175.279.263C374.038,60.982,376.891,59.92,380.209,57.619Z" transform="translate(-368.197 -35.424)"/>
          <path id="Path_776" data-name="Path 776" class="cls-3" d="M406.21,52.312a27.819,27.819,0,0,1-5.355,5.306c3.28,2.276,6.1,3.337,7.438,2.64.1-.1.205-.188.3-.287s.185-.191.276-.288C409.578,58.361,408.507,55.563,406.21,52.312Z" transform="translate(-383.824 -35.424)"/>
          <path id="Path_777" data-name="Path 777" class="cls-3" d="M391.487,43.029c1.033-1.023,1.982-2.056,2.837-3.072-.855-1.016-1.8-2.049-2.837-3.072s-2.075-1.964-3.1-2.811c-1.025.847-2.068,1.788-3.1,2.811s-1.983,2.056-2.837,3.072c.855,1.016,1.8,2.049,2.837,3.072s2.075,1.964,3.1,2.811C389.412,44.993,390.455,44.052,391.487,43.029Z" transform="translate(-373.865 -25.555)"/>
          <path id="Path_778" data-name="Path 778" class="cls-3" d="M384.171,20.469c3.664-2.089,7.216-2.711,9.444-1.486a14.613,14.613,0,0,0-18.957.038C376.881,17.744,380.469,18.358,384.171,20.469Z" transform="translate(-369.649 -15.511)"/>
          <path id="Path_779" data-name="Path 779" class="cls-3" d="M368.733,35.791c-2.126-3.663-2.747-7.213-1.467-9.416a14.28,14.28,0,0,0-.063,18.71C366.012,42.875,366.644,39.389,368.733,35.791Z" transform="translate(-363.743 -21.389)"/>
          <path id="Path_780" data-name="Path 780" class="cls-3" d="M384.343,67.474c-3.624,2.066-7.134,2.694-9.367,1.522a14.615,14.615,0,0,0,18.68.026C391.422,70.156,387.938,69.524,384.343,67.474Z" transform="translate(-369.821 -43.628)"/>
          <path id="Path_781" data-name="Path 781" class="cls-3" d="M417.663,26.534c1.227,2.208.6,5.72-1.506,9.343,2.07,3.565,2.708,7.02,1.56,9.233A14.276,14.276,0,0,0,417.663,26.534Z" transform="translate(-392.104 -21.475)"/>
          <path id="Path_782" data-name="Path 782" class="cls-3" d="M400.855,26.546a27.778,27.778,0,0,1,5.354,5.306c2.354-3.331,3.427-6.192,2.615-7.47-.076-.078-.149-.159-.227-.237s-.132-.123-.2-.186C407.111,23.147,404.222,24.21,400.855,26.546Z" transform="translate(-383.824 -19.936)"/>
        </g>
        <g id="Group_457" data-name="Group 457" transform="translate(40.502 18.744)">
          <path id="Path_783" data-name="Path 783" class="cls-3" d="M437.281,40.845a1.017,1.017,0,1,1-1.01,1.015,1,1,0,0,1,1.01-1.015Zm0,.158a.86.86,0,0,0,0,1.718.86.86,0,0,0,0-1.718Zm-.19,1.447h-.18V41.318a2.047,2.047,0,0,1,.32-.027.594.594,0,0,1,.352.086.271.271,0,0,1,.1.235.281.281,0,0,1-.221.275v.009c.1.018.167.108.19.275a.94.94,0,0,0,.072.279h-.19a.837.837,0,0,1-.077-.289.212.212,0,0,0-.244-.2h-.126v.487Zm0-.626h.131c.149,0,.275-.054.275-.194,0-.1-.072-.2-.275-.2a.867.867,0,0,0-.131.009Z" transform="translate(-436.271 -40.845)"/>
        </g>
      </g>
      <path id="Path_784" data-name="Path 784" class="cls-3" d="M1.815,62.24c1.456,0,2.363.77,2.363,2.015a1.8,1.8,0,0,1-1.2,1.762,5.872,5.872,0,0,1,1.6,1.994c.306.5.485.738.981,1.424H4.325l-.949-1.477c-.949-1.477-1.382-1.646-1.91-1.646H1.034v3.123H0v-7.2Zm-.781,3.144H1.7c1.108,0,1.424-.57,1.413-1.171C3.1,63.537,2.7,63.126,1.7,63.126H1.034Z" transform="translate(0 -33.677)"/>
      <path id="Path_785" data-name="Path 785" class="cls-3" d="M22.529,62.032a3.7,3.7,0,1,1-.021,7.385,3.7,3.7,0,1,1,.021-7.385Zm0,6.436a2.743,2.743,0,1,0-2.8-2.743A2.7,2.7,0,0,0,22.529,68.468Z" transform="translate(-10.101 -33.565)"/>
      <path id="Path_786" data-name="Path 786" class="cls-3" d="M51.61,69.435H50.576v-5.6h-.021L48.34,66.618h-.169l-2.216-2.785h-.021v5.6H44.9v-7.2h.971l2.384,2.954L50.65,62.24h.96Z" transform="translate(-24.295 -33.677)"/>
      <path id="Path_787" data-name="Path 787" class="cls-3" d="M73.651,63.168H70.6v2.173h2.943v.928H70.6v2.237h3.144v.928H69.568v-7.2h4.083Z" transform="translate(-37.642 -33.677)"/>
      <path id="Path_788" data-name="Path 788" class="cls-3" d="M102.044,69.53l-.918-.4,2.637-5.908h-3.112V62.24H105.3Z" transform="translate(-54.461 -33.677)"/>
      <path id="Path_789" data-name="Path 789" class="cls-3" d="M123.175,72.042H117.71v-.675h5.465v.675Z" transform="translate(-63.691 -38.616)"/>
      <path id="Path_790" data-name="Path 790" class="cls-3" d="M141.987,69.434h-1.034v-7.2h1.034Z" transform="translate(-76.268 -33.677)"/>
      <path id="Path_791" data-name="Path 791" class="cls-3" d="M160.04,69.322h-4.558v-.074a29.685,29.685,0,0,0,2.5-3.313,2.733,2.733,0,0,0,.506-1.54,1.254,1.254,0,0,0-1.234-1.351,2.047,2.047,0,0,0-1.625.971v-1.3a2.667,2.667,0,0,1,1.7-.686,2.119,2.119,0,0,1,2.195,2.247c0,1.171-.633,2.152-2.237,4.062h2.754v.981Z" transform="translate(-84.129 -33.565)"/>
      <path id="Path_792" data-name="Path 792" class="cls-3" d="M191.277,62.032a3.7,3.7,0,1,1-3.861,3.693A3.664,3.664,0,0,1,191.277,62.032Zm0,6.436a2.743,2.743,0,1,0-2.8-2.743A2.7,2.7,0,0,0,191.277,68.468Z" transform="translate(-101.408 -33.565)"/>
      <path id="Path_793" data-name="Path 793" class="cls-3" d="M219.718,63.731a4.741,4.741,0,0,0-2.48-.749,2.738,2.738,0,0,0-2.87,2.754,2.693,2.693,0,0,0,2.912,2.732,4.709,4.709,0,0,0,2.511-.813v1.129a5.274,5.274,0,0,1-2.606.633,3.677,3.677,0,0,1-3.882-3.587,3.749,3.749,0,0,1,3.946-3.8,6.259,6.259,0,0,1,2.469.591Z" transform="translate(-115.415 -33.565)"/>
      <path id="Path_794" data-name="Path 794" class="cls-3" d="M241.777,63.168h-2.49v6.267h-1.034V63.168h-2.49V62.24h6.014v.928Z" transform="translate(-127.568 -33.677)"/>
      <path id="Path_795" data-name="Path 795" class="cls-3" d="M259.558,62.032a3.7,3.7,0,1,1-3.861,3.693A3.664,3.664,0,0,1,259.558,62.032Zm0,6.436a2.743,2.743,0,1,0-2.8-2.743A2.7,2.7,0,0,0,259.558,68.468Z" transform="translate(-138.354 -33.565)"/>
      <path id="Path_796" data-name="Path 796" class="cls-3" d="M282.2,62.24h2.089c1.551,0,2.216.928,2.216,1.836a1.536,1.536,0,0,1-1.1,1.54v.021a1.9,1.9,0,0,1,1.73,1.878c0,.887-.665,1.92-2.469,1.92H282.2V62.24Zm1.034,3.081h.686c1.023,0,1.52-.38,1.52-1.15,0-.538-.306-1-1.256-1h-.949v2.152Zm0,3.186h1.3c1.213,0,1.54-.6,1.54-1.139,0-.654-.507-1.118-1.593-1.118h-1.245v2.258Z" transform="translate(-152.697 -33.677)"/>
      <path id="Path_797" data-name="Path 797" class="cls-3" d="M306.128,63.168h-3.049v2.173h2.943v.928h-2.943v2.237h3.144v.928h-4.178v-7.2h4.083Z" transform="translate(-163.432 -33.677)"/>
      <path id="Path_798" data-name="Path 798" class="cls-3" d="M322.3,62.24c1.456,0,2.363.77,2.363,2.015a1.8,1.8,0,0,1-1.2,1.762,5.873,5.873,0,0,1,1.6,1.994c.306.5.485.738.981,1.424h-1.234l-.949-1.477c-.95-1.477-1.382-1.646-1.91-1.646h-.432v3.123h-1.034v-7.2Zm-.781,3.144h.664c1.108,0,1.424-.57,1.413-1.171-.01-.675-.412-1.087-1.413-1.087h-.664Z" transform="translate(-173.409 -33.677)"/>
      <path id="Path_799" data-name="Path 799" class="cls-3" d="M1,87.921h.578l1,2.554H2.009l-.219-.586H.754l-.223.586H0Zm.281.512H1.27L.9,89.487h.747Z" transform="translate(0 -47.573)"/>
      <path id="Path_800" data-name="Path 800" class="cls-3" d="M7.873,87.921H8.5l.973,1.91h.007v-1.91h.491v2.554H9.347l-.977-1.91H8.364v1.91H7.873Z" transform="translate(-4.26 -47.573)"/>
      <path id="Path_801" data-name="Path 801" class="cls-3" d="M15.228,87.921h.629l.973,1.91h.007v-1.91h.491v2.554H16.7l-.977-1.91h-.007v1.91h-.49Z" transform="translate(-8.24 -47.573)"/>
      <path id="Path_802" data-name="Path 802" class="cls-3" d="M22.6,87.921h.512V89.4c0,.435.139.72.531.72s.531-.285.531-.72V87.921h.512v1.632c0,.684-.388.966-1.043.966s-1.043-.281-1.043-.966Z" transform="translate(-12.228 -47.573)"/>
      <path id="Path_803" data-name="Path 803" class="cls-3" d="M30.415,87.921h.578l1,2.554h-.567l-.219-.586H30.174l-.223.586H29.42Zm.282.512h-.007l-.369,1.054h.747Z" transform="translate(-15.919 -47.573)"/>
      <path id="Path_804" data-name="Path 804" class="cls-3" d="M37.349,87.921h.512v2.151h.992v.4h-1.5Z" transform="translate(-20.209 -47.573)"/>
      <path id="Path_805" data-name="Path 805" class="cls-3" d="M48.457,90.386a2.582,2.582,0,0,1-.582.08,1.226,1.226,0,0,1-1.4-1.277,1.267,1.267,0,0,1,1.4-1.365,1.692,1.692,0,0,1,.578.106l-.037.432a1.051,1.051,0,0,0-.553-.135.853.853,0,0,0-.856.926.841.841,0,0,0,.867.911,1.421,1.421,0,0,0,.56-.106Z" transform="translate(-25.146 -47.521)"/>
      <path id="Path_806" data-name="Path 806" class="cls-3" d="M54.2,87.825a1.323,1.323,0,1,1-1.251,1.313A1.195,1.195,0,0,1,54.2,87.825Zm0,2.239c.523,0,.717-.464.717-.926s-.208-.911-.717-.911-.717.461-.717.911S53.672,90.064,54.2,90.064Z" transform="translate(-28.647 -47.521)"/>
      <path id="Path_807" data-name="Path 807" class="cls-3" d="M60.961,87.921h.629l.973,1.91h.007v-1.91h.49v2.554h-.626l-.977-1.91h-.007v1.91h-.49V87.921Z" transform="translate(-32.985 -47.573)"/>
      <path id="Path_808" data-name="Path 808" class="cls-3" d="M68.372,87.921h1.419v.4h-.907v.629h.864v.4h-.864v1.12h-.512V87.921Z" transform="translate(-36.995 -47.573)"/>
      <path id="Path_809" data-name="Path 809" class="cls-3" d="M73.956,87.921h1.508v.4h-1v.629h.911v.4h-.911v.717h1v.4H73.956V87.921Z" transform="translate(-40.017 -47.573)"/>
      <path id="Path_810" data-name="Path 810" class="cls-3" d="M79.891,87.921h.553c.549,0,1.2-.018,1.2.692a.584.584,0,0,1-.527.592v.007c.139.011.219.15.271.263l.41,1H81.23l-.307-.8c-.073-.19-.139-.264-.355-.264H80.4v1.061h-.513Zm.513,1.09h.168c.252,0,.542-.037.542-.355s-.285-.333-.542-.333H80.4Z" transform="translate(-43.228 -47.573)"/>
      <path id="Path_811" data-name="Path 811" class="cls-3" d="M86.456,87.921h1.508v.4h-1v.629h.911v.4h-.911v.717h1v.4H86.456V87.921Z" transform="translate(-46.78 -47.573)"/>
      <path id="Path_812" data-name="Path 812" class="cls-3" d="M92.431,87.921h.629l.973,1.91h.007v-1.91h.49v2.554h-.626l-.977-1.91h-.007v1.91h-.491Z" transform="translate(-50.013 -47.573)"/>
      <path id="Path_813" data-name="Path 813" class="cls-3" d="M101.553,90.386a2.585,2.585,0,0,1-.582.08,1.226,1.226,0,0,1-1.4-1.277,1.267,1.267,0,0,1,1.4-1.365,1.688,1.688,0,0,1,.578.106l-.036.432a1.052,1.052,0,0,0-.553-.135.853.853,0,0,0-.856.926.841.841,0,0,0,.867.911,1.423,1.423,0,0,0,.56-.106Z" transform="translate(-53.876 -47.521)"/>
      <path id="Path_814" data-name="Path 814" class="cls-3" d="M106.312,87.921h1.508v.4h-1v.629h.911v.4h-.911v.717h1v.4h-1.514V87.921Z" transform="translate(-57.524 -47.573)"/>
      <path id="Path_815" data-name="Path 815" class="cls-3" d="M117.135,87.825a1.323,1.323,0,1,1-1.251,1.313A1.195,1.195,0,0,1,117.135,87.825Zm0,2.239c.524,0,.717-.464.717-.926s-.208-.911-.717-.911-.717.461-.717.911S116.612,90.064,117.135,90.064Z" transform="translate(-62.703 -47.521)"/>
      <path id="Path_816" data-name="Path 816" class="cls-3" d="M123.957,87.921h1.419v.4h-.907v.629h.864v.4h-.864v1.12h-.512Z" transform="translate(-67.071 -47.573)"/>
      <path id="Path_817" data-name="Path 817" class="cls-3" d="M133.5,88.323h-.732v-.4h1.976v.4h-.732v2.151H133.5Z" transform="translate(-71.841 -47.573)"/>
      <path id="Path_818" data-name="Path 818" class="cls-3" d="M139.385,87.921h.512v1.032h1.025V87.921h.512v2.554h-.512v-1.12H139.9v1.12h-.512Z" transform="translate(-75.419 -47.573)"/>
      <path id="Path_819" data-name="Path 819" class="cls-3" d="M146.74,87.921h1.508v.4h-1v.629h.911v.4h-.911v.717h1v.4H146.74V87.921Z" transform="translate(-79.399 -47.573)"/>
      <path id="Path_820" data-name="Path 820" class="cls-3" d="M156.488,87.921H157v2.554h-.513Z" transform="translate(-84.674 -47.573)"/>
      <path id="Path_821" data-name="Path 821" class="cls-3" d="M160.341,87.921h.629l.973,1.91h.007v-1.91h.49v2.554h-.626l-.977-1.91h-.007v1.91h-.49Z" transform="translate(-86.758 -47.573)"/>
      <path id="Path_822" data-name="Path 822" class="cls-3" d="M167.9,88.323h-.731v-.4h1.976v.4h-.732v2.151H167.9Z" transform="translate(-90.453 -47.573)"/>
      <path id="Path_823" data-name="Path 823" class="cls-3" d="M173.783,87.921h1.508v.4h-1v.629h.911v.4H174.3v.717h1v.4h-1.514V87.921Z" transform="translate(-94.032 -47.573)"/>
      <path id="Path_824" data-name="Path 824" class="cls-3" d="M179.717,87.921h.553c.549,0,1.2-.018,1.2.692a.584.584,0,0,1-.527.592v.007c.139.011.219.15.271.263l.41,1h-.571l-.307-.8c-.073-.19-.139-.264-.355-.264h-.164v1.061h-.513V87.921Zm.513,1.09h.168c.252,0,.542-.037.542-.355s-.285-.333-.542-.333h-.168Z" transform="translate(-97.242 -47.573)"/>
      <path id="Path_825" data-name="Path 825" class="cls-3" d="M186.227,87.921h.629l.973,1.91h.007v-1.91h.49v2.554H187.7l-.977-1.91h-.007v1.91h-.491V87.921Z" transform="translate(-100.765 -47.573)"/>
      <path id="Path_826" data-name="Path 826" class="cls-3" d="M194.058,87.921h.578l1,2.554h-.567l-.219-.586h-1.036l-.223.586h-.531Zm.282.512h-.007l-.369,1.054h.746Z" transform="translate(-104.464 -47.573)"/>
      <path id="Path_827" data-name="Path 827" class="cls-3" d="M200.5,88.323h-.732v-.4h1.976v.4h-.731v2.151H200.5Z" transform="translate(-108.094 -47.573)"/>
      <path id="Path_828" data-name="Path 828" class="cls-3" d="M206.289,87.921h.513v2.554h-.513Z" transform="translate(-111.62 -47.573)"/>
      <path id="Path_829" data-name="Path 829" class="cls-3" d="M211.178,87.825a1.323,1.323,0,1,1-1.251,1.313A1.195,1.195,0,0,1,211.178,87.825Zm0,2.239c.524,0,.717-.464.717-.926s-.209-.911-.717-.911-.717.461-.717.911S210.655,90.064,211.178,90.064Z" transform="translate(-113.589 -47.521)"/>
      <path id="Path_830" data-name="Path 830" class="cls-3" d="M217.943,87.921h.629l.973,1.91h.007v-1.91h.49v2.554h-.626l-.977-1.91h-.007v1.91h-.491V87.921Z" transform="translate(-117.926 -47.573)"/>
      <path id="Path_831" data-name="Path 831" class="cls-3" d="M225.776,87.921h.578l1,2.554h-.567l-.219-.586h-1.036l-.223.586h-.531Zm.282.512h-.007l-.369,1.054h.746Z" transform="translate(-121.626 -47.573)"/>
      <path id="Path_832" data-name="Path 832" class="cls-3" d="M232.71,87.921h.512v2.151h.992v.4h-1.5Z" transform="translate(-125.916 -47.573)"/>
      <path id="Path_833" data-name="Path 833" class="cls-3" d="M242.107,87.921H243c.329,0,.823.095.823.655a.57.57,0,0,1-.508.571v.007a.593.593,0,0,1,.586.582c0,.644-.578.739-.9.739h-.893Zm.512,1.032h.208c.216,0,.483-.048.483-.311,0-.3-.26-.318-.494-.318h-.2Zm0,1.119h.241c.238,0,.527-.058.527-.355,0-.333-.271-.384-.527-.384h-.241Z" transform="translate(-131.001 -47.573)"/>
      <path id="Path_834" data-name="Path 834" class="cls-3" d="M249,87.921h.578l1,2.554h-.567l-.219-.586h-1.036l-.223.586H248Zm.282.512h-.007l-.369,1.054h.746Z" transform="translate(-134.19 -47.573)"/>
      <path id="Path_835" data-name="Path 835" class="cls-3" d="M255.836,87.921h.553c.549,0,1.2-.018,1.2.692a.583.583,0,0,1-.527.592v.007c.139.011.219.15.271.263l.41,1h-.571l-.307-.8c-.073-.19-.139-.264-.355-.264h-.164v1.061h-.513Zm.512,1.09h.168c.252,0,.542-.037.542-.355s-.285-.333-.542-.333h-.168Z" transform="translate(-138.429 -47.573)"/>
      <path id="Path_836" data-name="Path 836" class="cls-3" d="M266.635,87.921h.578l1,2.554h-.567l-.219-.586h-1.036l-.223.586h-.53Zm.282.512h-.007l-.369,1.054h.746Z" transform="translate(-143.734 -47.573)"/>
      <path id="Path_837" data-name="Path 837" class="cls-3" d="M274.842,88.337a1.318,1.318,0,0,0-.52-.11.356.356,0,0,0-.4.355c0,.443,1.12.256,1.12,1.112,0,.56-.443.772-.958.772a2.247,2.247,0,0,1-.655-.1l.048-.461a1.229,1.229,0,0,0,.578.157c.194,0,.454-.1.454-.329,0-.486-1.12-.285-1.12-1.131,0-.571.443-.779.893-.779a1.933,1.933,0,0,1,.611.091Z" transform="translate(-147.925 -47.52)"/>
      <path id="Path_838" data-name="Path 838" class="cls-3" d="M280.872,88.337a1.318,1.318,0,0,0-.52-.11.356.356,0,0,0-.4.355c0,.443,1.12.256,1.12,1.112,0,.56-.443.772-.958.772a2.247,2.247,0,0,1-.655-.1l.048-.461a1.23,1.23,0,0,0,.578.157c.194,0,.453-.1.453-.329,0-.486-1.12-.285-1.12-1.131,0-.571.443-.779.893-.779a1.933,1.933,0,0,1,.611.091Z" transform="translate(-151.188 -47.52)"/>
      <path id="Path_839" data-name="Path 839" class="cls-3" d="M286.61,87.825a1.323,1.323,0,1,1-1.251,1.313A1.195,1.195,0,0,1,286.61,87.825Zm0,2.239c.524,0,.717-.464.717-.926s-.209-.911-.717-.911-.717.461-.717.911S286.087,90.064,286.61,90.064Z" transform="translate(-154.404 -47.521)"/>
      <path id="Path_840" data-name="Path 840" class="cls-3" d="M295.144,90.386a2.586,2.586,0,0,1-.582.08,1.226,1.226,0,0,1-1.4-1.277,1.267,1.267,0,0,1,1.4-1.365,1.689,1.689,0,0,1,.578.106l-.036.432a1.052,1.052,0,0,0-.553-.135.853.853,0,0,0-.856.926.841.841,0,0,0,.867.911,1.423,1.423,0,0,0,.56-.106Z" transform="translate(-158.625 -47.521)"/>
      <path id="Path_841" data-name="Path 841" class="cls-3" d="M299.806,87.921h.513v2.554h-.513Z" transform="translate(-162.221 -47.573)"/>
      <path id="Path_842" data-name="Path 842" class="cls-3" d="M304.136,87.921h.578l1,2.554h-.567l-.219-.586h-1.036l-.223.586h-.531Zm.282.512h-.007l-.369,1.054h.746Z" transform="translate(-164.025 -47.573)"/>
      <path id="Path_843" data-name="Path 843" class="cls-3" d="M310.582,88.323h-.731v-.4h1.976v.4H311.1v2.151h-.513Z" transform="translate(-167.656 -47.573)"/>
      <path id="Path_844" data-name="Path 844" class="cls-3" d="M316.367,87.921h.513v2.554h-.513Z" transform="translate(-171.182 -47.573)"/>
      <path id="Path_845" data-name="Path 845" class="cls-3" d="M321.256,87.825A1.323,1.323,0,1,1,320,89.138,1.195,1.195,0,0,1,321.256,87.825Zm0,2.239c.524,0,.717-.464.717-.926s-.208-.911-.717-.911-.717.461-.717.911S320.733,90.064,321.256,90.064Z" transform="translate(-173.15 -47.521)"/>
      <path id="Path_846" data-name="Path 846" class="cls-3" d="M328.022,87.921h.629l.973,1.91h.007v-1.91h.49v2.554H329.5l-.977-1.91h-.007v1.91h-.491V87.921Z" transform="translate(-177.488 -47.573)"/>
      <path id="Path_847" data-name="Path 847" class="cls-3" d="M81.028.67h5.3V24.014h-5.3Z" transform="translate(-43.843 -0.363)"/>
      <path id="Path_848" data-name="Path 848" class="cls-3" d="M101.881.67h7.9c4.785,0,6.869,3.042,6.869,5.913a5.107,5.107,0,0,1-3.144,4.751,6.069,6.069,0,0,1,3.931,5.81c0,3.725-2.769,6.869-7.588,6.869h-7.964Zm6.425,9.433c2.016,0,3.042-.923,3.042-2.837,0-1.88-.957-2.8-3.042-2.8h-1.128V10.1Zm.581,10.117c2.29,0,3.247-1.162,3.247-3.144,0-1.641-.786-3.178-2.905-3.178h-2.051V20.22Z" transform="translate(-55.126 -0.363)"/>
      <path id="Path_849" data-name="Path 849" class="cls-3" d="M146.947.373h5.5l6.118,23.48H153.44L152.347,19h-5.263l-1.128,4.853h-5.127Zm4.614,14.833L149.75,6.73h-.068l-1.846,8.476Z" transform="translate(-76.201 -0.202)"/>
      <path id="Path_850" data-name="Path 850" class="cls-3" d="M208.927,23.651H193.854v-.376c1.3-1.162,8.716-11.894,8.716-15.517a3.318,3.318,0,0,0-3.315-3.486,9.173,9.173,0,0,0-4.717,1.709V1.743A11.518,11.518,0,0,1,200.587,0c4,0,6.9,2.666,6.9,6.357,0,3.076-1.5,6.63-5.879,12.68h7.314Z" transform="translate(-104.892)"/>
      <path id="Path_851" data-name="Path 851" class="cls-3" d="M241.793,0c5.332,0,7.622,4.99,7.622,12s-2.29,11.962-7.69,11.962c-4.956,0-7.656-4.238-7.656-11.962S236.735,0,241.793,0Zm-.068,19.926c1.948,0,2.392-2.324,2.392-7.929,0-4.922-.273-7.964-2.392-7.964-2.187,0-2.358,3.384-2.358,8C239.367,16.679,239.538,19.926,241.725,19.926Z" transform="translate(-126.652)"/>
      <path id="Path_852" data-name="Path 852" class="cls-3" d="M277.86.67h5.3V24.014h-5.3Z" transform="translate(-150.346 -0.363)"/>
      <path id="Path_853" data-name="Path 853" class="cls-3" d="M299.5,6.391C299.5,2.666,302.472,0,306.573,0c4,0,6.938,2.7,6.938,6.391a5.5,5.5,0,0,1-3.247,5.161c2.734,1.128,4,2.871,4,5.571,0,2.871-2.153,6.836-7.826,6.836-5.4,0-7.724-3.486-7.724-6.767,0-2.769,1.2-4.443,3.965-5.639A5.527,5.527,0,0,1,299.5,6.391ZM306.5,20.678c1.538,0,2.461-1.367,2.461-3.657,0-2.324-.923-3.725-2.461-3.725-1.572,0-2.495,1.4-2.495,3.794C304.01,19.311,304.967,20.678,306.5,20.678Zm.068-10.458c1.333,0,2.017-1.23,2.017-3.623,0-2.187-.718-3.315-2.085-3.315-1.333,0-2.085,1.128-2.085,3.315C304.42,9.023,305.138,10.22,306.573,10.22Z" transform="translate(-161.629)"/>
      <path id="Path_854" data-name="Path 854" class="cls-3" d="M1.663,45.743H32.25V41.622l-.068.067a.185.185,0,0,0,.04.036c-.081-.06-2.138-1.465-15.513-1.465-12.751,0-14.793,1.287-14.961,1.412a.616.616,0,0,1-.084.074v4Zm3.513-.561H4.009V42.957c0-.619.258-1.12.577-1.12H4.6c.319,0,.577.5.577,1.12Zm2.3,0H5.7V42.788c0-.665.393-1.2.878-1.2H6.6c.485,0,.878.539.878,1.2v2.394Zm2.915,0H8.138V42.63a1.208,1.208,0,0,1,1.116-1.284h.022a1.209,1.209,0,0,1,1.116,1.284Zm15.383,0H23.521V42.63a1.208,1.208,0,0,1,1.116-1.284h.022a1.209,1.209,0,0,1,1.116,1.284Zm2.435,0H26.437V42.788c0-.665.393-1.2.878-1.2h.018c.485,0,.878.539.878,1.2v2.394Zm1.694,0H28.738V42.957c0-.619.258-1.12.577-1.12h.011c.319,0,.577.5.577,1.12ZM31,42.146c.257,0,.464.455.464,1.016v2.019h-.938V43.162c0-.561.208-1.016.464-1.016Zm-9.891-.966A1.317,1.317,0,0,1,22.4,42.52v2.662H19.789V42.52a1.317,1.317,0,0,1,1.293-1.34Zm-4.166-.09h.028a1.37,1.37,0,0,1,1.37,1.37v2.722H15.573V42.46A1.37,1.37,0,0,1,16.943,41.09Zm-4.138.09h.026a1.317,1.317,0,0,1,1.293,1.34v2.662H11.512V42.52A1.316,1.316,0,0,1,12.8,41.18ZM2.45,43.163c0-.561.208-1.016.464-1.016h.009c.257,0,.464.455.464,1.016v2.019H2.45Z" transform="translate(-0.9 -21.784)"/>
      <path id="Path_855" data-name="Path 855" class="cls-3" d="M16.708,31.117c10.205,0,14.085.81,15.542,1.357V28.113c-.07-.084-2.2-2.46-15.544-2.46S1.713,28.028,1.7,28.052A.18.18,0,0,0,1.722,28l-.059-.024v4.466C3.139,31.862,6.939,31.117,16.708,31.117Zm-13.32.013c-.375.078-.684.156-.938.23V29.624c0-.9.208-1.633.464-1.633h.009c.257,0,.464.731.464,1.633V31.13Zm28.075.275c-.256-.073-.565-.15-.938-.228V29.625c0-.9.208-1.633.464-1.633H31c.257,0,.464.731.464,1.633v1.781Zm-2.149-3.912h.011c.319,0,.577.806.577,1.8v1.764c-.345-.061-.732-.123-1.166-.182V29.293C28.738,28.3,29,27.494,29.315,27.494Zm-2-.407h.018c.485,0,.878.867.878,1.936v1.783c-.527-.065-1.116-.128-1.773-.185v-1.6C26.437,27.954,26.829,27.087,27.314,27.087Zm-2.678-.382h.022c.616,0,1.116.924,1.116,2.064v1.8c-.683-.053-1.431-.1-2.254-.142V28.769C23.521,27.629,24.02,26.705,24.637,26.705Zm-3.555-.266h.026c.714,0,1.293.964,1.293,2.152v1.784c-.807-.031-1.675-.056-2.612-.074v-1.71C19.789,27.4,20.368,26.44,21.082,26.44ZM16.943,26.3h.028c.756,0,1.37.985,1.37,2.2v1.787c-.525-.005-1.067-.008-1.631-.008-.389,0-.766,0-1.136,0V28.5C15.573,27.28,16.186,26.3,16.943,26.3ZM12.8,26.44h.026c.714,0,1.293.964,1.293,2.152v1.7c-.937.014-1.806.036-2.612.065V28.592C11.512,27.4,12.091,26.44,12.8,26.44Zm-3.551.266h.022c.616,0,1.116.924,1.116,2.064V30.4c-.823.038-1.571.082-2.254.132V28.769C8.138,27.629,8.638,26.705,9.254,26.705Zm-2.673.382H6.6c.485,0,.878.867.878,1.936v1.564c-.659.055-1.246.115-1.773.178V29.023C5.7,27.954,6.1,27.087,6.581,27.087Zm-1.994.407H4.6c.319,0,.577.806.577,1.8v1.539c-.435.058-.822.118-1.166.179V29.293C4.009,28.3,4.268,27.494,4.587,27.494Z" transform="translate(-0.9 -13.88)"/>
      <path id="Path_856" data-name="Path 856" class="cls-3" d="M18.36,11.749v.005h-.276C3.72,11.792,1.908,14.764,1.7,15.678c-.009.038-.019.077-.033.117V18.96c1.61-.929,5.528-2.106,15.043-2.106,1.437,0,2.749.028,3.95.077l-2.035-5.248A.838.838,0,0,1,18.36,11.749ZM3.388,17.4a8.1,8.1,0,0,0-.938.437v-.989c0-1.484.379-1.632.464-1.632h.009c.257,0,.464.16.464,1.632V17.4Zm1.787-.566c-.435.111-.822.224-1.166.339v-.954c0-1.883.384-1.948.577-1.948H4.6c.163,0,.577.064.577,1.948Zm2.3-.464c-.659.1-1.246.218-1.773.337v-.72c0-2.026.508-2.486.878-2.486H6.6c.3,0,.878.18.878,2.206v.664Zm2.915-.317c-.823.071-1.571.124-2.254.219V15.222c0-2.16.78-2.448,1.116-2.448h.022c.417,0,1.116.288,1.116,2.448Zm3.732-.078-2.612.078V14.991c0-1.922.734-2.617,1.293-2.617h.026c.515,0,1.293.622,1.293,2.617v.982Zm4.216.064c-.525-.009-1.067-.015-1.631-.015-.389,0-.766,0-1.136.007V14.953c0-1.853.659-2.709,1.37-2.709h.028c.532,0,1.37.721,1.37,2.709Z" transform="translate(-0.9 -6.322)"/>
      <path id="Path_857" data-name="Path 857" class="cls-3" d="M17.2,5.129,16.018,1.718C5.18,1.772,1.663,5.116,1.663,6.742V8.206C3.512,6.622,7.83,5.233,17.2,5.129ZM12.776,2.96l.289-.03a.13.13,0,0,1,.152.125v.766a.167.167,0,0,1-.152.157l-.289.03a.13.13,0,0,1-.152-.125V3.117A.167.167,0,0,1,12.776,2.96Zm-3.894.662a.171.171,0,0,1,.141-.162l.267-.041a.118.118,0,0,1,.141.119V4.3a.171.171,0,0,1-.141.162L9.022,4.5a.118.118,0,0,1-.141-.119Zm-3.169.917a.167.167,0,0,1,.123-.152l.233-.057a.092.092,0,0,1,.123.091V5.08a.167.167,0,0,1-.123.152l-.233.057A.092.092,0,0,1,5.712,5.2ZM3.276,5.812a.178.178,0,0,1,.08-.145l.151-.082c.044-.024.08,0,.08.059V6.2a.177.177,0,0,1-.08.145l-.151.082c-.044.024-.08,0-.08-.058Z" transform="translate(-0.9 -0.93)"/>
      <path id="Path_858" data-name="Path 858" class="cls-3" d="M68.292,30.966v-.039l-.018.011A.169.169,0,0,0,68.292,30.966Z" transform="translate(-36.942 -16.734)"/>
      <path id="Path_859" data-name="Path 859" class="cls-3" d="M18.059,10.2a.248.248,0,0,0-.246-.25c-.161,0-1.114,0-1.638,0h-.319C2.05,9.951.262,13.756.1,14.19a.248.248,0,1,0,.466.17c.058-.16,1.587-3.913,15.286-3.913h.319c.522,0,1.472,0,1.633,0A.248.248,0,0,0,18.059,10.2Z" transform="translate(-0.048 -5.384)"/>
      <path id="Path_860" data-name="Path 860" class="cls-3" d="M.5,5.242a.251.251,0,0,0,.061.007A.248.248,0,0,0,.8,5.062C.813,5.016,2.318.5,15.4.5a.248.248,0,0,0,.248-.248.244.244,0,0,0-.116-.2A.236.236,0,0,0,15.4,0C1.724,0,.333,4.892.321,4.941a.259.259,0,0,0,.18.3Z" transform="translate(-0.17 0)"/>
      <path id="Path_861" data-name="Path 861" class="cls-3" d="M15.806,23.762c-14.445,0-15.74,2.772-15.788,2.89h0a.239.239,0,0,0,0,.185.252.252,0,0,0,.128.131.251.251,0,0,0,.326-.12c.012-.026,1.439-2.589,15.333-2.589,13.963,0,15.832,2.593,15.846,2.614a.248.248,0,0,0,.34.088.251.251,0,0,0,.1-.3.247.247,0,0,0-.015-.043C32.011,26.5,30.226,23.762,15.806,23.762Z" transform="translate(0 -12.857)"/>
      <path id="Path_862" data-name="Path 862" class="cls-3" d="M15.975,38.369c-14.038,0-15.5,1.544-15.622,1.72a.252.252,0,0,0,.2.4.23.23,0,0,0,.193-.1c.058-.062,1.572-1.52,15.225-1.52,13.8,0,15.672,1.483,15.738,1.539a.248.248,0,0,0,.352-.349C32,39.986,30.228,38.369,15.975,38.369Z" transform="translate(-0.167 -20.761)"/>
    </g>
  </g>
</svg>
